Coordinates
version=1
nRows=21
nColumns=28
inDegrees=yes

Units are S.I. units (second, meters, Newtons, ...)
Angles are in degrees.

endheader
time	pelvis_tilt	pelvis_list	pelvis_rotation	pelvis_tx	pelvis_ty	pelvis_tz	hip_flexion_r	hip_adduction_r	hip_rotation_r	knee_angle_r	ankle_angle_r	subtalar_angle_r	mtp_angle_r	hip_flexion_l	hip_adduction_l	hip_rotation_l	knee_angle_l	socket_flexion	socket_adduction	socket_rotation	socket_tx	socket_ty	socket_tz	foot_flex	lumbar_extension	lumbar_bending	lumbar_rotation
      0.54583333	     -0.72051226	     -4.45482423	     11.88510115	     -0.03970297	      0.96377732	      0.21395281	     25.45536306	      4.65434423	     -5.32831550	     -9.70566758	      7.94122447	    -19.53041471	     -9.24782582	    -17.08180519	     -4.41391503	     12.64903044	    -12.58699015	      0.00000000	      0.00000000	      0.00000000	      0.00000000	     -0.00117283	      0.00000000	      9.56080633	     -7.32797737	      5.11455958	    -20.20351210
      0.55000000	     -0.99256614	     -4.35338020	     11.74964306	     -0.03968917	      0.96332951	      0.21416926	     25.94259388	      4.49062048	     -5.52463086	    -10.10998076	      7.94206473	    -19.50986871	     -8.72281393	    -16.81270342	     -4.21511196	     12.52481294	    -12.61552351	      0.00000000	      0.00000000	      0.00000000	      0.00000000	     -0.00113216	      0.00000000	      9.57230391	     -7.04132317	      4.90199774	    -20.08086275
      0.55416667	     -0.90080835	     -4.44742062	     11.85803661	     -0.03344635	      0.96219629	      0.21369525	     26.10415276	      4.65733775	     -5.33300733	    -10.93683718	      7.58476967	    -19.50630205	     -8.67250951	    -16.95252728	     -4.33889444	     12.63379475	    -13.19236692	      0.00000000	      0.00000000	      0.00000000	      0.00000000	     -0.00108266	      0.00000000	      9.57680288	     -7.08401263	      5.14492547	    -20.13938525
      0.55833333	     -1.29264340	     -4.42811379	     11.77818148	     -0.02717400	      0.96030984	      0.21355056	     27.00334993	      4.62189584	     -5.31374360	    -12.16452767	      5.78782938	    -20.94007718	     -4.36062193	    -16.54786231	     -4.18388446	     12.57546069	    -13.90424181	      0.00000000	      0.00000000	      0.00000000	      0.00000000	     -0.00101343	      0.00000000	      9.63438535	     -6.58820897	      5.12903759	    -20.34285668
      0.56250000	     -1.16994810	     -4.52732070	     11.86756583	     -0.02084892	      0.95926897	      0.21307670	     27.11313490	      4.80189496	     -5.10093929	    -12.99341769	      5.46477193	    -20.85880132	     -4.36497818	    -16.67675926	     -4.29942296	     12.65771910	    -14.55991385	      0.00000000	      0.00000000	      0.00000000	      0.00000000	     -0.00094519	      0.00000000	      9.54593382	     -6.66378436	      5.38880913	    -20.34876600
      0.56666667	     -1.04789361	     -4.60630481	     11.86775702	     -0.01455406	      0.95819571	      0.21279216	     27.32607892	      4.97133577	     -5.01337579	    -14.01281532	      5.00331106	    -20.81072554	     -4.37077332	    -16.79218818	     -4.36832407	     12.62594088	    -15.26425121	      0.00000000	      0.00000000	      0.00000000	      0.00000000	     -0.00087262	      0.00000000	      9.47917636	     -6.74746175	      5.62216412	    -20.36954129
      0.57083333	     -1.02534408	     -4.59915890	     11.70840234	     -0.00810287	      0.95695234	      0.21273860	     27.80059307	      5.03921802	     -5.12851448	    -15.37065975	      4.25042188	    -20.83863929	     -4.32026922	    -16.83597132	     -4.28186955	     12.38106159	    -15.97658450	      0.00000000	      0.00000000	      0.00000000	      0.00000000	     -0.00064611	      0.00000000	      9.46289052	     -6.73120324	      5.71064511	    -20.38266152
      0.57500000	     -0.93916237	     -4.69357694	     11.79070292	     -0.00168112	      0.95601832	      0.21229549	     27.90741215	      5.20751159	     -4.86388630	    -16.17335543	      3.94740163	    -20.76004979	     -4.27437445	    -16.83215604	     -4.36720280	     12.43327155	    -16.77418915	      0.00000000	      0.00000000	      0.00000000	      0.00000000	     -0.00050047	      0.00000000	      9.21279992	     -6.74021906	      5.94460666	    -20.35083982
      0.57916667	     -1.84378250	     -4.47304576	     11.34789687	      0.00434972	      0.95347404	      0.21290325	     29.54706644	      5.01435940	     -4.40968147	    -17.89590656	      2.97816283	    -21.15554940	     -3.18016326	    -15.70339458	     -3.77307975	     12.21336393	    -17.90394630	      0.00000000	      0.00000000	      0.00000000	      0.00000000	     -0.00025821	      0.00000000	      9.13588430	     -5.77432761	      5.51001546	    -19.92531535
      0.58333333	     -1.73319819	     -4.57984971	     11.27223631	      0.01088999	      0.95250348	      0.21273322	     29.75545804	      5.21580412	     -4.34828597	    -18.93842785	      2.47780456	    -21.12714124	     -2.95583506	    -15.70854160	     -3.83309719	     12.03700819	    -18.77420273	      0.00000000	      0.00000000	      0.00000000	      0.00000000	     -0.00011968	      0.00000000	      8.88939787	     -5.81628971	      5.76840399	    -19.93534155
      0.58750000	     -1.59438854	     -4.70293945	     11.28937000	      0.01735011	      0.95175651	      0.21245228	     29.81936006	      5.43440939	     -4.16266907	    -19.77843769	      2.17603534	    -21.04158134	     -2.88116491	    -15.65264231	     -3.92618249	     11.99477472	    -19.74847368	      0.00000000	      0.00000000	      0.00000000	      0.00000000	      0.00010017	      0.00000000	      8.55599740	     -5.89151498	      6.04100878	    -19.90968782
      0.59166667	     -2.15518644	     -4.58806569	     10.93553386	      0.02370053	      0.94983524	      0.21283246	     30.94617824	      5.37168697	     -3.89190493	    -21.26442273	      1.44446992	    -21.16797156	     -1.50106632	    -14.82786674	     -3.54101488	     11.66748035	    -20.91294170	      0.00000000	      0.00000000	      0.00000000	      0.00000000	      0.00041033	      0.00000000	      8.31021761	     -5.24841995	      5.83227191	    -19.51422055
      0.59583333	     -1.96747382	     -4.73350216	     10.96389353	      0.03024990	      0.94928408	      0.21257265	     30.91243814	      5.61420233	     -3.74860528	    -22.04739444	      1.21899753	    -21.07996152	     -1.44935901	    -14.74619031	     -3.66717981	     11.56980232	    -21.98716570	      0.00000000	      0.00000000	      0.00000000	      0.00000000	      0.00071060	      0.00000000	      7.87134543	     -5.36100162	      6.13225198	    -19.50568002
      0.60000000	     -1.79008354	     -4.86658214	     10.90475893	      0.03675315	      0.94869964	      0.21249001	     30.97424414	      5.84341977	     -3.73243631	    -22.98483280	      0.91138554	    -20.98979096	     -1.37905408	    -14.61109339	     -3.76213112	     11.30230830	    -23.14372286	      0.00000000	      0.00000000	      0.00000000	      0.00000000	      0.00103675	      0.00000000	      7.45733103	     -5.48909654	      6.41277311	    -19.49111532
      0.60416667	     -1.62845178	     -4.99249797	     10.85368121	      0.04334933	      0.94817037	      0.21240707	     31.01003893	      6.06385784	     -3.69825381	    -23.87813358	      0.66204641	    -20.89826184	     -1.30617232	    -14.42912948	     -3.85287166	     11.02236555	    -24.33198703	      0.00000000	      0.00000000	      0.00000000	      0.00000000	      0.00143582	      0.00000000	      6.98462823	     -5.57825516	      6.67482861	    -19.45328016
      0.60833333	     -2.19492809	     -4.92061689	     10.45639894	      0.04988051	      0.94640369	      0.21292074	     32.08823124	      6.03625354	     -3.56249570	    -25.33267268	      0.40700000	    -20.55825324	     -0.20896239	    -13.42793083	     -3.52847701	     10.47663965	    -25.72660917	      0.00000000	      0.00000000	      0.00000000	      0.00000000	      0.00190215	      0.00000000	      6.59907242	     -4.90351345	      6.49598019	    -18.94212486
      0.61250000	     -1.98036930	     -5.06613632	     10.48995306	      0.05651840	      0.94618418	      0.21275312	     31.94153879	      6.27210004	     -3.48639650	    -26.04171772	      0.31213143	    -20.49851693	     -0.15472586	    -13.19693882	     -3.68184589	     10.21180684	    -27.01184051	      0.00000000	      0.00000000	      0.00000000	      0.00000000	      0.00244366	      0.00000000	      5.97702775	     -5.02075710	      6.78614122	    -18.92350013
      0.61666667	     -1.82221323	     -5.24748610	     10.37517987	      0.06312437	      0.94573349	      0.21292512	     31.98513519	      6.54498551	     -3.63079953	    -26.94800301	      0.22796732	    -20.42308129	      0.01270399	    -12.84076349	     -3.86612638	      9.62128589	    -28.43632414	      0.00000000	      0.00000000	      0.00000000	      0.00000000	      0.00294924	      0.00000000	      5.52160718	     -5.11657307	      7.08256801	    -18.87556090
      0.62083333	     -1.72201920	     -5.43411847	     10.28653727	      0.06980830	      0.94534113	      0.21313504	     32.00186426	      6.81989886	     -3.69398205	    -27.74188887	      0.24354322	    -20.31713042	      0.20963653	    -12.37759165	     -4.07901509	      9.02576079	    -29.88835225	      0.00000000	      0.00000000	      0.00000000	      0.00000000	      0.00358396	      0.00000000	      5.00465945	     -5.12513307	      7.33935157	    -18.77122227
      0.62500000	     -1.53580636	     -5.58746764	     10.28720025	      0.07630223	      0.94523054	      0.21325046	     31.84959596	      7.09124626	     -3.64384090	    -28.38662818	      0.23760866	    -20.24191085	      0.28599496	    -11.96393117	     -4.28536994	      8.62328036	    -31.34113739	      0.00000000	      0.00000000	      0.00000000	      0.00000000	      0.00415398	      0.00000000	      4.23475655	     -5.25808785	      7.60019025	    -18.71277110
      0.62916667	     -1.94610810	     -5.80221213	     10.00737239	      0.08303674	      0.94407944	      0.21392997	     32.46241156	      7.39150759	     -3.60935358	    -29.29250085	      0.54726037	    -19.89300479	      1.10204456	    -10.83333647	     -4.47193825	      7.76513037	    -33.00680457	      0.00000000	      0.00000000	      0.00000000	      0.00000000	      0.00477661	      0.00000000	      3.75089618	     -4.67942995	      7.74462877	    -18.25929190
